<svg width="739" height="747" viewBox="0 0 739 747" fill="none" xmlns="http://www.w3.org/2000/svg">
<path d="M108.183 637.204C56.5273 585.002 21.3491 518.493 7.0972 446.086C-7.15468 373.68 0.159906 298.628 28.116 230.423C56.072 162.218 103.414 103.922 164.155 62.9067C224.896 21.8917 296.308 7.56501e-05 369.361 8.94384e-05C442.414 0.000103227 513.826 21.8918 574.567 62.9067C635.308 103.922 682.65 162.218 710.606 230.423C738.562 298.629 745.877 373.68 731.625 446.086C717.373 518.493 682.195 585.002 630.539 637.204L605.112 611.509C651.739 564.389 683.493 504.354 696.357 438.997C709.221 373.64 702.619 305.895 677.385 244.33C652.15 182.764 609.417 130.144 554.589 93.1216C499.762 56.0996 435.302 36.3392 369.361 36.3392C303.42 36.3392 238.961 56.0995 184.133 93.1215C129.305 130.143 86.5721 182.764 61.3377 244.329C36.1033 305.895 29.5008 373.639 42.3652 438.997C55.2296 504.354 86.9831 564.389 133.61 611.509L108.183 637.204Z" fill="url(#paint0_angular_2508_2182)"/>
<path fill-rule="evenodd" clip-rule="evenodd" d="M630.814 636.723L512.516 520.327L514.174 523.574L632.485 639.984L630.814 636.723Z" fill="url(#paint1_linear_2508_2182)"/>
<defs>
<radialGradient id="paint0_angular_2508_2182" cx="0" cy="0" r="1" gradientUnits="userSpaceOnUse" gradientTransform="translate(351.523 362.662) rotate(135) scale(358.248)">
<stop stop-color="#2D953C" stop-opacity="0"/>
<stop offset="0.24993" stop-color="#3CB14C"/>
<stop offset="0.414856" stop-color="#DF9300"/>
</radialGradient>
<linearGradient id="paint1_linear_2508_2182" x1="615.876" y1="624.264" x2="584.395" y2="641.977" gradientUnits="userSpaceOnUse">
<stop offset="0.0971729" stop-color="white"/>
<stop offset="0.680863" stop-color="white" stop-opacity="0"/>
</linearGradient>
</defs>
</svg>
