<svg width="774" height="781" viewBox="0 0 774 781" fill="none" xmlns="http://www.w3.org/2000/svg">
<g opacity="0.5" filter="url(#filter0_f_2602_2236)">
<path d="M135.279 645.087C85.09 594.368 50.9112 529.748 37.0642 459.398C23.2171 389.049 30.324 316.13 57.4858 249.862C84.6477 183.594 130.645 126.954 189.66 87.1046C248.676 47.2548 318.059 25.9851 389.037 25.9851C460.014 25.9851 529.397 47.2549 588.413 87.1047C647.428 126.954 693.425 183.594 720.587 249.862C747.749 316.13 754.856 389.049 741.009 459.398C727.162 529.748 692.983 594.368 642.794 645.087L629.356 631.507C676.887 583.474 709.256 522.276 722.369 455.652C735.483 389.028 728.753 319.97 703.029 257.212C677.306 194.453 633.745 140.813 577.854 103.073C521.964 65.334 456.255 45.1906 389.037 45.1906C321.818 45.1906 256.109 65.3339 200.219 103.073C144.328 140.813 100.767 194.453 75.0437 257.212C49.3203 319.97 42.5899 389.028 55.7036 455.652C68.8173 522.275 101.186 583.473 148.717 631.507L135.279 645.087Z" fill="url(#paint0_linear_2602_2236)"/>
</g>
<g opacity="0.5" filter="url(#filter1_f_2602_2236)">
<path d="M199.959 579.724C162.978 542.352 137.793 494.737 127.59 442.9C117.387 391.064 122.624 337.334 142.638 288.505C162.652 239.676 196.544 197.942 240.029 168.579C283.515 139.216 334.639 123.543 386.938 123.543C439.237 123.543 490.362 139.216 533.847 168.579C577.332 197.942 611.225 239.676 631.239 288.505C651.253 337.334 656.489 391.064 646.286 442.9C636.083 494.737 610.899 542.352 573.918 579.724L548.577 554.115C580.546 521.808 602.317 480.646 611.137 435.835C619.958 391.024 615.431 344.576 598.129 302.365C580.828 260.153 551.529 224.075 513.937 198.691C476.345 173.308 432.149 159.76 386.938 159.76C341.727 159.76 297.531 173.308 259.94 198.691C222.348 224.075 193.049 260.153 175.747 302.365C158.446 344.576 153.919 391.024 162.739 435.835C171.559 480.646 193.331 521.808 225.3 554.115L199.959 579.724Z" fill="url(#paint1_linear_2602_2236)"/>
</g>
<path d="M113.888 666.703C59.8843 612.128 23.107 542.595 8.20736 466.898C-6.69235 391.2 0.954691 312.737 30.1815 241.432C59.4083 170.126 108.902 109.18 172.404 66.301C235.906 23.4217 310.565 0.534993 386.938 0.535C463.311 0.535007 537.969 23.4217 601.471 66.3011C664.973 109.18 714.467 170.126 743.694 241.432C772.921 312.738 780.568 391.2 765.668 466.898C750.768 542.596 713.991 612.128 659.987 666.703L657.773 664.466C711.34 610.334 747.819 541.365 762.598 466.281C777.377 391.197 769.792 313.37 740.802 242.643C711.812 171.915 662.719 111.463 599.732 68.9314C536.745 26.3998 462.692 3.69852 386.938 3.69851C311.184 3.69851 237.131 26.3997 174.143 68.9313C111.156 111.463 62.0635 171.915 33.0737 242.642C4.08378 313.37 -3.50131 391.197 11.2776 466.281C26.0565 541.365 62.5356 610.334 116.102 664.466L113.888 666.703Z" fill="#606C70"/>
<g opacity="0.2">
<mask id="path-4-inside-1_2602_2236" fill="white">
<path d="M238.54 540.733C209.19 511.072 189.202 473.283 181.105 432.143C173.007 391.003 177.163 348.36 193.047 309.607C208.931 270.854 235.83 237.731 270.342 214.427C304.854 191.123 345.429 178.685 386.937 178.685C428.444 178.685 469.019 191.123 503.531 214.427C538.043 237.731 564.942 270.854 580.826 309.607C596.71 348.36 600.866 391.003 592.768 432.143C584.671 473.283 564.683 511.072 535.333 540.733L533.914 539.298C562.983 509.922 582.779 472.493 590.8 431.747C598.82 391 594.704 348.766 578.971 310.383C563.239 272.001 536.598 239.195 502.416 216.114C468.234 193.033 428.047 180.713 386.937 180.713C345.826 180.713 305.639 193.033 271.457 216.114C237.276 239.195 210.634 272.001 194.902 310.383C179.17 348.766 175.053 391 183.074 431.747C191.094 472.493 210.89 509.921 239.96 539.298L238.54 540.733Z"/>
</mask>
<path d="M238.54 540.733C209.19 511.072 189.202 473.283 181.105 432.143C173.007 391.003 177.163 348.36 193.047 309.607C208.931 270.854 235.83 237.731 270.342 214.427C304.854 191.123 345.429 178.685 386.937 178.685C428.444 178.685 469.019 191.123 503.531 214.427C538.043 237.731 564.942 270.854 580.826 309.607C596.71 348.36 600.866 391.003 592.768 432.143C584.671 473.283 564.683 511.072 535.333 540.733L533.914 539.298C562.983 509.922 582.779 472.493 590.8 431.747C598.82 391 594.704 348.766 578.971 310.383C563.239 272.001 536.598 239.195 502.416 216.114C468.234 193.033 428.047 180.713 386.937 180.713C345.826 180.713 305.639 193.033 271.457 216.114C237.276 239.195 210.634 272.001 194.902 310.383C179.17 348.766 175.053 391 183.074 431.747C191.094 472.493 210.89 509.921 239.96 539.298L238.54 540.733Z" stroke="#F1F1F1" stroke-width="8.42537" stroke-dasharray="4.32 4.32" mask="url(#path-4-inside-1_2602_2236)"/>
</g>
<defs>
<filter id="filter0_f_2602_2236" x="13.3172" y="9.13461" width="751.438" height="652.803" filterUnits="userSpaceOnUse" color-interpolation-filters="sRGB">
<feFlood flood-opacity="0" result="BackgroundImageFix"/>
<feBlend mode="normal" in="SourceGraphic" in2="BackgroundImageFix" result="shape"/>
<feGaussianBlur stdDeviation="8.42537" result="effect1_foregroundBlur_2602_2236"/>
</filter>
<filter id="filter1_f_2602_2236" x="105.659" y="106.692" width="562.559" height="489.882" filterUnits="userSpaceOnUse" color-interpolation-filters="sRGB">
<feFlood flood-opacity="0" result="BackgroundImageFix"/>
<feBlend mode="normal" in="SourceGraphic" in2="BackgroundImageFix" result="shape"/>
<feGaussianBlur stdDeviation="8.42537" result="effect1_foregroundBlur_2602_2236"/>
</filter>
<linearGradient id="paint0_linear_2602_2236" x1="395.154" y1="38.3485" x2="395.154" y2="656.522" gradientUnits="userSpaceOnUse">
<stop stop-color="#C4C4C4"/>
<stop offset="1" stop-color="white" stop-opacity="0"/>
</linearGradient>
<linearGradient id="paint1_linear_2602_2236" x1="391.446" y1="132.653" x2="391.446" y2="588.149" gradientUnits="userSpaceOnUse">
<stop stop-color="#C4C4C4"/>
<stop offset="1" stop-color="white" stop-opacity="0"/>
</linearGradient>
</defs>
</svg>
